<svg width="132" height="147" viewBox="0 0 132 147" fill="none" xmlns="http://www.w3.org/2000/svg">
<g clip-path="url(#clip0_3_168)">
<path d="M70.4113 88.208C55.3447 100.21 34.937 103.889 16.1843 103.528C-2.35198 102.972 -19.2225 98.1718 -33.6152 89.375C-47.9972 80.3725 -59.8798 66.9624 -68.6782 49.794C-77.4766 32.6257 -83.3857 11.4827 -78.2719 -7.43434C-73.1582 -26.3513 -57.0108 -43.248 -37.7745 -52.1446C-18.5274 -61.247 4.0142 -62.3386 23.0724 -55.9798C42.3364 -49.6102 57.8897 -35.3895 70.8562 -19.0348C83.812 -2.47441 94.1594 16.6314 94.3729 36.2392C94.792 55.8578 85.4779 76.2056 70.4113 88.208Z" fill="url(#paint0_linear_3_168)"/>
<path d="M55.4113 73.208C40.3447 85.2104 19.937 88.8888 1.18427 88.5281C-17.352 87.9724 -34.2225 83.1718 -48.6152 74.375C-62.9972 65.3725 -74.8798 51.9624 -83.6782 34.794C-92.4766 17.6257 -98.3857 -3.51734 -93.2719 -22.4343C-88.1582 -41.3513 -72.0108 -58.248 -52.7745 -67.1446C-33.5274 -76.247 -10.9858 -77.3386 8.07243 -70.9798C27.3364 -64.6102 42.8897 -50.3895 55.8562 -34.0348C68.812 -17.4744 79.1594 1.63138 79.3729 21.2392C79.792 40.8578 70.4779 61.2056 55.4113 73.208Z" fill="url(#paint1_linear_3_168)"/>
</g>
<defs>
<linearGradient id="paint0_linear_3_168" x1="65.2193" y1="-56.5959" x2="50.0118" y2="109.203" gradientUnits="userSpaceOnUse">
<stop stop-color="#FF00B8" stop-opacity="0.6"/>
<stop offset="1" stop-color="#9847FF" stop-opacity="0.6"/>
</linearGradient>
<linearGradient id="paint1_linear_3_168" x1="50.2193" y1="-71.5959" x2="35.0118" y2="94.2027" gradientUnits="userSpaceOnUse">
<stop stop-color="#FF00B8" stop-opacity="0.6"/>
<stop offset="1" stop-color="#9847FF" stop-opacity="0.6"/>
</linearGradient>
<clipPath id="clip0_3_168">
<rect width="206" height="206" fill="white" transform="translate(131.466 -59.2539) rotate(92.9902)"/>
</clipPath>
</defs>
</svg>
