<svg width="507" height="555" viewBox="0 0 507 555" fill="none" xmlns="http://www.w3.org/2000/svg">
  <g id="spacecraft" clip-path="url(#clip0_3_64)">
    <g id="spacecraft-lines">
      <path id="Vector"
        d="M215.714 400.436C215.284 400.436 214.871 400.266 214.567 399.962C214.263 399.658 214.092 399.246 214.092 398.816V303.196C214.092 302.766 214.263 302.354 214.567 302.05C214.871 301.746 215.284 301.575 215.714 301.575C216.144 301.575 216.556 301.746 216.861 302.05C217.165 302.354 217.336 302.766 217.336 303.196V398.816C217.336 399.246 217.165 399.658 216.861 399.962C216.556 400.266 216.144 400.436 215.714 400.436Z"
        fill="#CCCCCC" />
      <path id="Vector_2"
        d="M191.385 486.332C190.955 486.332 190.542 486.161 190.238 485.858C189.934 485.554 189.763 485.141 189.763 484.712V415.023C189.763 414.593 189.934 414.18 190.238 413.876C190.542 413.573 190.955 413.402 191.385 413.402C191.815 413.402 192.228 413.573 192.532 413.876C192.836 414.18 193.007 414.593 193.007 415.023V484.712C193.007 485.141 192.836 485.554 192.532 485.858C192.228 486.161 191.815 486.332 191.385 486.332V486.332Z"
        fill="#CCCCCC" />
      <path id="Vector_3"
        d="M253.829 428.798C253.398 428.798 252.986 428.627 252.682 428.324C252.378 428.02 252.207 427.607 252.207 427.178V331.558C252.207 331.128 252.377 330.716 252.682 330.412C252.986 330.108 253.398 329.937 253.829 329.937C254.259 329.937 254.671 330.108 254.975 330.412C255.28 330.716 255.45 331.128 255.45 331.558V427.178C255.45 427.607 255.28 428.02 254.975 428.324C254.671 428.627 254.259 428.798 253.829 428.798Z"
        fill="#CCCCCC" />
      <path id="Vector_4"
        d="M230.311 497.677C229.881 497.677 229.468 497.506 229.164 497.202C228.86 496.898 228.689 496.486 228.689 496.056V457.16C228.689 456.73 228.86 456.318 229.164 456.014C229.468 455.71 229.881 455.539 230.311 455.539C230.741 455.539 231.154 455.71 231.458 456.014C231.762 456.318 231.933 456.73 231.933 457.16V496.056C231.933 496.486 231.762 496.898 231.458 497.202C231.154 497.506 230.741 497.677 230.311 497.677V497.677Z"
        fill="#CCCCCC" />
      <path id="Vector_5"
        d="M263.56 298.334C263.13 298.334 262.717 298.163 262.413 297.859C262.109 297.555 261.938 297.143 261.938 296.713V257.817C261.938 257.387 262.109 256.975 262.413 256.671C262.717 256.367 263.13 256.196 263.56 256.196C263.99 256.196 264.403 256.367 264.707 256.671C265.011 256.975 265.182 257.387 265.182 257.817V296.713C265.182 297.143 265.011 297.555 264.707 297.859C264.403 298.163 263.99 298.334 263.56 298.334V298.334Z"
        fill="#CCCCCC" />
      <path id="Vector_6"
        d="M182.465 315.351C182.034 315.351 181.622 315.18 181.318 314.876C181.014 314.572 180.843 314.16 180.843 313.73V274.834C180.843 274.404 181.014 273.992 181.318 273.688C181.622 273.384 182.034 273.213 182.465 273.213C182.895 273.213 183.307 273.384 183.611 273.688C183.916 273.992 184.087 274.404 184.087 274.834V313.73C184.086 314.16 183.916 314.572 183.611 314.876C183.307 315.18 182.895 315.351 182.465 315.351V315.351Z"
        fill="#CCCCCC" />
      <path id="Vector_7"
        d="M323.571 319.403C323.14 319.403 322.728 319.232 322.424 318.928C322.12 318.624 321.949 318.212 321.949 317.782V278.886C321.949 278.456 322.12 278.044 322.424 277.74C322.728 277.436 323.14 277.265 323.571 277.265C324.001 277.265 324.413 277.436 324.717 277.74C325.022 278.044 325.192 278.456 325.192 278.886V317.782C325.192 318.212 325.022 318.624 324.717 318.928C324.413 319.232 324.001 319.403 323.571 319.403Z"
        fill="#CCCCCC" />
      <path id="Vector_8"
        d="M320.327 440.953C319.897 440.953 319.484 440.782 319.18 440.479C318.876 440.175 318.705 439.762 318.705 439.333V392.333C318.705 391.903 318.876 391.491 319.18 391.187C319.484 390.883 319.897 390.712 320.327 390.712C320.757 390.712 321.169 390.883 321.474 391.187C321.778 391.491 321.949 391.903 321.949 392.333V439.333C321.949 439.762 321.778 440.175 321.474 440.479C321.169 440.782 320.757 440.953 320.327 440.953Z"
        fill="#CCCCCC" />
      <path id="Vector_9"
        d="M287.889 482.28C287.458 482.28 287.046 482.11 286.742 481.806C286.438 481.502 286.267 481.09 286.267 480.66V410.971C286.267 410.541 286.438 410.129 286.742 409.825C287.046 409.521 287.458 409.35 287.889 409.35C288.319 409.35 288.731 409.521 289.035 409.825C289.34 410.129 289.511 410.541 289.511 410.971V480.66C289.51 481.09 289.34 481.502 289.035 481.806C288.731 482.11 288.319 482.28 287.889 482.28Z"
        fill="#CCCCCC" />
      <path id="Vector_10"
        d="M294.376 363.161C293.946 363.161 293.534 362.99 293.229 362.686C292.925 362.382 292.754 361.97 292.754 361.54V265.92C292.754 265.49 292.925 265.078 293.229 264.774C293.534 264.47 293.946 264.3 294.376 264.3C294.806 264.3 295.219 264.47 295.523 264.774C295.827 265.078 295.998 265.49 295.998 265.92V361.54C295.998 361.97 295.827 362.382 295.523 362.686C295.219 362.99 294.806 363.161 294.376 363.161Z"
        fill="#CCCCCC" />
    </g>
    <g id="texts">
      <path id="Next.js"
        d="M297.41 474.938V492H293.895L287.039 480.562V492H283.523V474.938H287.039L293.906 486.387V474.938H297.41ZM306.094 492.234C305.109 492.234 304.227 492.078 303.445 491.766C302.664 491.445 302 491.004 301.453 490.441C300.914 489.879 300.5 489.227 300.211 488.484C299.922 487.734 299.777 486.938 299.777 486.094V485.625C299.777 484.664 299.914 483.785 300.188 482.988C300.461 482.191 300.852 481.5 301.359 480.914C301.875 480.328 302.5 479.879 303.234 479.566C303.969 479.246 304.797 479.086 305.719 479.086C306.617 479.086 307.414 479.234 308.109 479.531C308.805 479.828 309.387 480.25 309.855 480.797C310.332 481.344 310.691 482 310.934 482.766C311.176 483.523 311.297 484.367 311.297 485.297V486.703H301.219V484.453H307.98V484.195C307.98 483.727 307.895 483.309 307.723 482.941C307.559 482.566 307.309 482.27 306.973 482.051C306.637 481.832 306.207 481.723 305.684 481.723C305.238 481.723 304.855 481.82 304.535 482.016C304.215 482.211 303.953 482.484 303.75 482.836C303.555 483.188 303.406 483.602 303.305 484.078C303.211 484.547 303.164 485.062 303.164 485.625V486.094C303.164 486.602 303.234 487.07 303.375 487.5C303.523 487.93 303.73 488.301 303.996 488.613C304.27 488.926 304.598 489.168 304.98 489.34C305.371 489.512 305.812 489.598 306.305 489.598C306.914 489.598 307.48 489.48 308.004 489.246C308.535 489.004 308.992 488.641 309.375 488.156L311.016 489.938C310.75 490.32 310.387 490.688 309.926 491.039C309.473 491.391 308.926 491.68 308.285 491.906C307.645 492.125 306.914 492.234 306.094 492.234ZM315.938 479.32L318.035 483.176L320.191 479.32H323.789L320.203 485.52L323.953 492H320.344L318.059 487.922L315.773 492H312.164L315.914 485.52L312.328 479.32H315.938ZM331.641 479.32V481.711H324.258V479.32H331.641ZM326.086 476.191H329.461V488.18C329.461 488.547 329.508 488.828 329.602 489.023C329.703 489.219 329.852 489.355 330.047 489.434C330.242 489.504 330.488 489.539 330.785 489.539C330.996 489.539 331.184 489.531 331.348 489.516C331.52 489.492 331.664 489.469 331.781 489.445L331.793 491.93C331.504 492.023 331.191 492.098 330.855 492.152C330.52 492.207 330.148 492.234 329.742 492.234C329 492.234 328.352 492.113 327.797 491.871C327.25 491.621 326.828 491.223 326.531 490.676C326.234 490.129 326.086 489.41 326.086 488.52V476.191ZM333.727 490.371C333.727 489.871 333.898 489.453 334.242 489.117C334.594 488.781 335.059 488.613 335.637 488.613C336.215 488.613 336.676 488.781 337.02 489.117C337.371 489.453 337.547 489.871 337.547 490.371C337.547 490.871 337.371 491.289 337.02 491.625C336.676 491.961 336.215 492.129 335.637 492.129C335.059 492.129 334.594 491.961 334.242 491.625C333.898 491.289 333.727 490.871 333.727 490.371ZM340.711 479.32H344.098V492.762C344.098 493.699 343.926 494.492 343.582 495.141C343.238 495.789 342.742 496.281 342.094 496.617C341.445 496.953 340.66 497.121 339.738 497.121C339.449 497.121 339.168 497.105 338.895 497.074C338.613 497.043 338.324 496.992 338.027 496.922L338.039 494.332C338.227 494.363 338.41 494.387 338.59 494.402C338.762 494.426 338.938 494.438 339.117 494.438C339.469 494.438 339.762 494.379 339.996 494.262C340.23 494.145 340.406 493.961 340.523 493.711C340.648 493.469 340.711 493.152 340.711 492.762V479.32ZM340.441 476.016C340.441 475.523 340.613 475.117 340.957 474.797C341.309 474.477 341.77 474.316 342.34 474.316C342.918 474.316 343.379 474.477 343.723 474.797C344.066 475.117 344.238 475.523 344.238 476.016C344.238 476.508 344.066 476.914 343.723 477.234C343.379 477.555 342.918 477.715 342.34 477.715C341.77 477.715 341.309 477.555 340.957 477.234C340.613 476.914 340.441 476.508 340.441 476.016ZM353.637 488.496C353.637 488.254 353.566 488.035 353.426 487.84C353.285 487.645 353.023 487.465 352.641 487.301C352.266 487.129 351.723 486.973 351.012 486.832C350.371 486.691 349.773 486.516 349.219 486.305C348.672 486.086 348.195 485.824 347.789 485.52C347.391 485.215 347.078 484.855 346.852 484.441C346.625 484.02 346.512 483.539 346.512 483C346.512 482.469 346.625 481.969 346.852 481.5C347.086 481.031 347.418 480.617 347.848 480.258C348.285 479.891 348.816 479.605 349.441 479.402C350.074 479.191 350.785 479.086 351.574 479.086C352.676 479.086 353.621 479.262 354.41 479.613C355.207 479.965 355.816 480.449 356.238 481.066C356.668 481.676 356.883 482.371 356.883 483.152H353.508C353.508 482.824 353.438 482.531 353.297 482.273C353.164 482.008 352.953 481.801 352.664 481.652C352.383 481.496 352.016 481.418 351.562 481.418C351.188 481.418 350.863 481.484 350.59 481.617C350.316 481.742 350.105 481.914 349.957 482.133C349.816 482.344 349.746 482.578 349.746 482.836C349.746 483.031 349.785 483.207 349.863 483.363C349.949 483.512 350.086 483.648 350.273 483.773C350.461 483.898 350.703 484.016 351 484.125C351.305 484.227 351.68 484.32 352.125 484.406C353.039 484.594 353.855 484.84 354.574 485.145C355.293 485.441 355.863 485.848 356.285 486.363C356.707 486.871 356.918 487.539 356.918 488.367C356.918 488.93 356.793 489.445 356.543 489.914C356.293 490.383 355.934 490.793 355.465 491.145C354.996 491.488 354.434 491.758 353.777 491.953C353.129 492.141 352.398 492.234 351.586 492.234C350.406 492.234 349.406 492.023 348.586 491.602C347.773 491.18 347.156 490.645 346.734 489.996C346.32 489.34 346.113 488.668 346.113 487.98H349.312C349.328 488.441 349.445 488.812 349.664 489.094C349.891 489.375 350.176 489.578 350.52 489.703C350.871 489.828 351.25 489.891 351.656 489.891C352.094 489.891 352.457 489.832 352.746 489.715C353.035 489.59 353.254 489.426 353.402 489.223C353.559 489.012 353.637 488.77 353.637 488.496Z"
        fill="url(#paint0_linear_3_64)" />
      <path id="Node.js"
        d="M314.41 410.938V428H310.895L304.039 416.562V428H300.523V410.938H304.039L310.906 422.387V410.938H314.41ZM316.719 421.789V421.543C316.719 420.613 316.852 419.758 317.117 418.977C317.383 418.188 317.77 417.504 318.277 416.926C318.785 416.348 319.41 415.898 320.152 415.578C320.895 415.25 321.746 415.086 322.707 415.086C323.668 415.086 324.523 415.25 325.273 415.578C326.023 415.898 326.652 416.348 327.16 416.926C327.676 417.504 328.066 418.188 328.332 418.977C328.598 419.758 328.73 420.613 328.73 421.543V421.789C328.73 422.711 328.598 423.566 328.332 424.355C328.066 425.137 327.676 425.82 327.16 426.406C326.652 426.984 326.027 427.434 325.285 427.754C324.543 428.074 323.691 428.234 322.73 428.234C321.77 428.234 320.914 428.074 320.164 427.754C319.422 427.434 318.793 426.984 318.277 426.406C317.77 425.82 317.383 425.137 317.117 424.355C316.852 423.566 316.719 422.711 316.719 421.789ZM320.094 421.543V421.789C320.094 422.32 320.141 422.816 320.234 423.277C320.328 423.738 320.477 424.145 320.68 424.496C320.891 424.84 321.164 425.109 321.5 425.305C321.836 425.5 322.246 425.598 322.73 425.598C323.199 425.598 323.602 425.5 323.938 425.305C324.273 425.109 324.543 424.84 324.746 424.496C324.949 424.145 325.098 423.738 325.191 423.277C325.293 422.816 325.344 422.32 325.344 421.789V421.543C325.344 421.027 325.293 420.543 325.191 420.09C325.098 419.629 324.945 419.223 324.734 418.871C324.531 418.512 324.262 418.23 323.926 418.027C323.59 417.824 323.184 417.723 322.707 417.723C322.23 417.723 321.824 417.824 321.488 418.027C321.16 418.23 320.891 418.512 320.68 418.871C320.477 419.223 320.328 419.629 320.234 420.09C320.141 420.543 320.094 421.027 320.094 421.543ZM338.293 425.234V410H341.691V428H338.633L338.293 425.234ZM330.277 421.812V421.566C330.277 420.598 330.387 419.719 330.605 418.93C330.824 418.133 331.145 417.449 331.566 416.879C331.988 416.309 332.508 415.867 333.125 415.555C333.742 415.242 334.445 415.086 335.234 415.086C335.977 415.086 336.625 415.242 337.18 415.555C337.742 415.867 338.219 416.312 338.609 416.891C339.008 417.461 339.328 418.137 339.57 418.918C339.812 419.691 339.988 420.539 340.098 421.461V422C339.988 422.883 339.812 423.703 339.57 424.461C339.328 425.219 339.008 425.883 338.609 426.453C338.219 427.016 337.742 427.453 337.18 427.766C336.617 428.078 335.961 428.234 335.211 428.234C334.422 428.234 333.719 428.074 333.102 427.754C332.492 427.434 331.977 426.984 331.555 426.406C331.141 425.828 330.824 425.148 330.605 424.367C330.387 423.586 330.277 422.734 330.277 421.812ZM333.652 421.566V421.812C333.652 422.336 333.691 422.824 333.77 423.277C333.855 423.73 333.992 424.133 334.18 424.484C334.375 424.828 334.625 425.098 334.93 425.293C335.242 425.48 335.621 425.574 336.066 425.574C336.645 425.574 337.121 425.445 337.496 425.188C337.871 424.922 338.156 424.559 338.352 424.098C338.555 423.637 338.672 423.105 338.703 422.504V420.969C338.68 420.477 338.609 420.035 338.492 419.645C338.383 419.246 338.219 418.906 338 418.625C337.789 418.344 337.523 418.125 337.203 417.969C336.891 417.812 336.52 417.734 336.09 417.734C335.652 417.734 335.277 417.836 334.965 418.039C334.652 418.234 334.398 418.504 334.203 418.848C334.016 419.191 333.875 419.598 333.781 420.066C333.695 420.527 333.652 421.027 333.652 421.566ZM350.164 428.234C349.18 428.234 348.297 428.078 347.516 427.766C346.734 427.445 346.07 427.004 345.523 426.441C344.984 425.879 344.57 425.227 344.281 424.484C343.992 423.734 343.848 422.938 343.848 422.094V421.625C343.848 420.664 343.984 419.785 344.258 418.988C344.531 418.191 344.922 417.5 345.43 416.914C345.945 416.328 346.57 415.879 347.305 415.566C348.039 415.246 348.867 415.086 349.789 415.086C350.688 415.086 351.484 415.234 352.18 415.531C352.875 415.828 353.457 416.25 353.926 416.797C354.402 417.344 354.762 418 355.004 418.766C355.246 419.523 355.367 420.367 355.367 421.297V422.703H345.289V420.453H352.051V420.195C352.051 419.727 351.965 419.309 351.793 418.941C351.629 418.566 351.379 418.27 351.043 418.051C350.707 417.832 350.277 417.723 349.754 417.723C349.309 417.723 348.926 417.82 348.605 418.016C348.285 418.211 348.023 418.484 347.82 418.836C347.625 419.188 347.477 419.602 347.375 420.078C347.281 420.547 347.234 421.062 347.234 421.625V422.094C347.234 422.602 347.305 423.07 347.445 423.5C347.594 423.93 347.801 424.301 348.066 424.613C348.34 424.926 348.668 425.168 349.051 425.34C349.441 425.512 349.883 425.598 350.375 425.598C350.984 425.598 351.551 425.48 352.074 425.246C352.605 425.004 353.062 424.641 353.445 424.156L355.086 425.938C354.82 426.32 354.457 426.688 353.996 427.039C353.543 427.391 352.996 427.68 352.355 427.906C351.715 428.125 350.984 428.234 350.164 428.234ZM357.453 426.371C357.453 425.871 357.625 425.453 357.969 425.117C358.32 424.781 358.785 424.613 359.363 424.613C359.941 424.613 360.402 424.781 360.746 425.117C361.098 425.453 361.273 425.871 361.273 426.371C361.273 426.871 361.098 427.289 360.746 427.625C360.402 427.961 359.941 428.129 359.363 428.129C358.785 428.129 358.32 427.961 357.969 427.625C357.625 427.289 357.453 426.871 357.453 426.371ZM364.438 415.32H367.824V428.762C367.824 429.699 367.652 430.492 367.309 431.141C366.965 431.789 366.469 432.281 365.82 432.617C365.172 432.953 364.387 433.121 363.465 433.121C363.176 433.121 362.895 433.105 362.621 433.074C362.34 433.043 362.051 432.992 361.754 432.922L361.766 430.332C361.953 430.363 362.137 430.387 362.316 430.402C362.488 430.426 362.664 430.438 362.844 430.438C363.195 430.438 363.488 430.379 363.723 430.262C363.957 430.145 364.133 429.961 364.25 429.711C364.375 429.469 364.438 429.152 364.438 428.762V415.32ZM364.168 412.016C364.168 411.523 364.34 411.117 364.684 410.797C365.035 410.477 365.496 410.316 366.066 410.316C366.645 410.316 367.105 410.477 367.449 410.797C367.793 411.117 367.965 411.523 367.965 412.016C367.965 412.508 367.793 412.914 367.449 413.234C367.105 413.555 366.645 413.715 366.066 413.715C365.496 413.715 365.035 413.555 364.684 413.234C364.34 412.914 364.168 412.508 364.168 412.016ZM377.363 424.496C377.363 424.254 377.293 424.035 377.152 423.84C377.012 423.645 376.75 423.465 376.367 423.301C375.992 423.129 375.449 422.973 374.738 422.832C374.098 422.691 373.5 422.516 372.945 422.305C372.398 422.086 371.922 421.824 371.516 421.52C371.117 421.215 370.805 420.855 370.578 420.441C370.352 420.02 370.238 419.539 370.238 419C370.238 418.469 370.352 417.969 370.578 417.5C370.812 417.031 371.145 416.617 371.574 416.258C372.012 415.891 372.543 415.605 373.168 415.402C373.801 415.191 374.512 415.086 375.301 415.086C376.402 415.086 377.348 415.262 378.137 415.613C378.934 415.965 379.543 416.449 379.965 417.066C380.395 417.676 380.609 418.371 380.609 419.152H377.234C377.234 418.824 377.164 418.531 377.023 418.273C376.891 418.008 376.68 417.801 376.391 417.652C376.109 417.496 375.742 417.418 375.289 417.418C374.914 417.418 374.59 417.484 374.316 417.617C374.043 417.742 373.832 417.914 373.684 418.133C373.543 418.344 373.473 418.578 373.473 418.836C373.473 419.031 373.512 419.207 373.59 419.363C373.676 419.512 373.812 419.648 374 419.773C374.188 419.898 374.43 420.016 374.727 420.125C375.031 420.227 375.406 420.32 375.852 420.406C376.766 420.594 377.582 420.84 378.301 421.145C379.02 421.441 379.59 421.848 380.012 422.363C380.434 422.871 380.645 423.539 380.645 424.367C380.645 424.93 380.52 425.445 380.27 425.914C380.02 426.383 379.66 426.793 379.191 427.145C378.723 427.488 378.16 427.758 377.504 427.953C376.855 428.141 376.125 428.234 375.312 428.234C374.133 428.234 373.133 428.023 372.312 427.602C371.5 427.18 370.883 426.645 370.461 425.996C370.047 425.34 369.84 424.668 369.84 423.98H373.039C373.055 424.441 373.172 424.812 373.391 425.094C373.617 425.375 373.902 425.578 374.246 425.703C374.598 425.828 374.977 425.891 375.383 425.891C375.82 425.891 376.184 425.832 376.473 425.715C376.762 425.59 376.98 425.426 377.129 425.223C377.285 425.012 377.363 424.77 377.363 424.496Z"
        fill="url(#paint1_linear_3_64)" />
      <path id="TypeScript"
        d="M111.152 417.938V435H107.648V417.938H111.152ZM116.402 417.938V420.691H102.48V417.938H116.402ZM121.043 433.57L124.406 422.32H128.027L122.93 436.91C122.82 437.23 122.672 437.574 122.484 437.941C122.305 438.309 122.059 438.656 121.746 438.984C121.441 439.32 121.055 439.594 120.586 439.805C120.125 440.016 119.559 440.121 118.887 440.121C118.566 440.121 118.305 440.102 118.102 440.062C117.898 440.023 117.656 439.969 117.375 439.898V437.426C117.461 437.426 117.551 437.426 117.645 437.426C117.738 437.434 117.828 437.438 117.914 437.438C118.359 437.438 118.723 437.387 119.004 437.285C119.285 437.184 119.512 437.027 119.684 436.816C119.855 436.613 119.992 436.348 120.094 436.02L121.043 433.57ZM119.637 422.32L122.391 431.508L122.871 435.082L120.574 435.328L116.016 422.32H119.637ZM132.75 424.758V439.875H129.375V422.32H132.504L132.75 424.758ZM140.777 428.52V428.766C140.777 429.688 140.668 430.543 140.449 431.332C140.238 432.121 139.926 432.809 139.512 433.395C139.098 433.973 138.582 434.426 137.965 434.754C137.355 435.074 136.652 435.234 135.855 435.234C135.082 435.234 134.41 435.078 133.84 434.766C133.27 434.453 132.789 434.016 132.398 433.453C132.016 432.883 131.707 432.223 131.473 431.473C131.238 430.723 131.059 429.918 130.934 429.059V428.414C131.059 427.492 131.238 426.648 131.473 425.883C131.707 425.109 132.016 424.441 132.398 423.879C132.789 423.309 133.266 422.867 133.828 422.555C134.398 422.242 135.066 422.086 135.832 422.086C136.637 422.086 137.344 422.238 137.953 422.543C138.57 422.848 139.086 423.285 139.5 423.855C139.922 424.426 140.238 425.105 140.449 425.895C140.668 426.684 140.777 427.559 140.777 428.52ZM137.391 428.766V428.52C137.391 427.98 137.344 427.484 137.25 427.031C137.164 426.57 137.023 426.168 136.828 425.824C136.641 425.48 136.391 425.215 136.078 425.027C135.773 424.832 135.402 424.734 134.965 424.734C134.504 424.734 134.109 424.809 133.781 424.957C133.461 425.105 133.199 425.32 132.996 425.602C132.793 425.883 132.641 426.219 132.539 426.609C132.438 427 132.375 427.441 132.352 427.934V429.562C132.391 430.141 132.5 430.66 132.68 431.121C132.859 431.574 133.137 431.934 133.512 432.199C133.887 432.465 134.379 432.598 134.988 432.598C135.434 432.598 135.809 432.5 136.113 432.305C136.418 432.102 136.664 431.824 136.852 431.473C137.047 431.121 137.184 430.715 137.262 430.254C137.348 429.793 137.391 429.297 137.391 428.766ZM148.711 435.234C147.727 435.234 146.844 435.078 146.062 434.766C145.281 434.445 144.617 434.004 144.07 433.441C143.531 432.879 143.117 432.227 142.828 431.484C142.539 430.734 142.395 429.938 142.395 429.094V428.625C142.395 427.664 142.531 426.785 142.805 425.988C143.078 425.191 143.469 424.5 143.977 423.914C144.492 423.328 145.117 422.879 145.852 422.566C146.586 422.246 147.414 422.086 148.336 422.086C149.234 422.086 150.031 422.234 150.727 422.531C151.422 422.828 152.004 423.25 152.473 423.797C152.949 424.344 153.309 425 153.551 425.766C153.793 426.523 153.914 427.367 153.914 428.297V429.703H143.836V427.453H150.598V427.195C150.598 426.727 150.512 426.309 150.34 425.941C150.176 425.566 149.926 425.27 149.59 425.051C149.254 424.832 148.824 424.723 148.301 424.723C147.855 424.723 147.473 424.82 147.152 425.016C146.832 425.211 146.57 425.484 146.367 425.836C146.172 426.188 146.023 426.602 145.922 427.078C145.828 427.547 145.781 428.062 145.781 428.625V429.094C145.781 429.602 145.852 430.07 145.992 430.5C146.141 430.93 146.348 431.301 146.613 431.613C146.887 431.926 147.215 432.168 147.598 432.34C147.988 432.512 148.43 432.598 148.922 432.598C149.531 432.598 150.098 432.48 150.621 432.246C151.152 432.004 151.609 431.641 151.992 431.156L153.633 432.938C153.367 433.32 153.004 433.688 152.543 434.039C152.09 434.391 151.543 434.68 150.902 434.906C150.262 435.125 149.531 435.234 148.711 435.234ZM164.93 430.535C164.93 430.23 164.883 429.957 164.789 429.715C164.703 429.465 164.539 429.238 164.297 429.035C164.055 428.824 163.715 428.617 163.277 428.414C162.84 428.211 162.273 428 161.578 427.781C160.805 427.531 160.07 427.25 159.375 426.938C158.688 426.625 158.078 426.262 157.547 425.848C157.023 425.426 156.609 424.938 156.305 424.383C156.008 423.828 155.859 423.184 155.859 422.449C155.859 421.738 156.016 421.094 156.328 420.516C156.641 419.93 157.078 419.43 157.641 419.016C158.203 418.594 158.867 418.27 159.633 418.043C160.406 417.816 161.254 417.703 162.176 417.703C163.434 417.703 164.531 417.93 165.469 418.383C166.406 418.836 167.133 419.457 167.648 420.246C168.172 421.035 168.434 421.938 168.434 422.953H164.941C164.941 422.453 164.836 422.016 164.625 421.641C164.422 421.258 164.109 420.957 163.688 420.738C163.273 420.52 162.75 420.41 162.117 420.41C161.508 420.41 161 420.504 160.594 420.691C160.188 420.871 159.883 421.117 159.68 421.43C159.477 421.734 159.375 422.078 159.375 422.461C159.375 422.75 159.445 423.012 159.586 423.246C159.734 423.48 159.953 423.699 160.242 423.902C160.531 424.105 160.887 424.297 161.309 424.477C161.73 424.656 162.219 424.832 162.773 425.004C163.703 425.285 164.52 425.602 165.223 425.953C165.934 426.305 166.527 426.699 167.004 427.137C167.48 427.574 167.84 428.07 168.082 428.625C168.324 429.18 168.445 429.809 168.445 430.512C168.445 431.254 168.301 431.918 168.012 432.504C167.723 433.09 167.305 433.586 166.758 433.992C166.211 434.398 165.559 434.707 164.801 434.918C164.043 435.129 163.195 435.234 162.258 435.234C161.414 435.234 160.582 435.125 159.762 434.906C158.941 434.68 158.195 434.34 157.523 433.887C156.859 433.434 156.328 432.855 155.93 432.152C155.531 431.449 155.332 430.617 155.332 429.656H158.859C158.859 430.188 158.941 430.637 159.105 431.004C159.27 431.371 159.5 431.668 159.797 431.895C160.102 432.121 160.461 432.285 160.875 432.387C161.297 432.488 161.758 432.539 162.258 432.539C162.867 432.539 163.367 432.453 163.758 432.281C164.156 432.109 164.449 431.871 164.637 431.566C164.832 431.262 164.93 430.918 164.93 430.535ZM175.863 432.598C176.277 432.598 176.645 432.52 176.965 432.363C177.285 432.199 177.535 431.973 177.715 431.684C177.902 431.387 178 431.039 178.008 430.641H181.184C181.176 431.531 180.938 432.324 180.469 433.02C180 433.707 179.371 434.25 178.582 434.648C177.793 435.039 176.91 435.234 175.934 435.234C174.949 435.234 174.09 435.07 173.355 434.742C172.629 434.414 172.023 433.961 171.539 433.383C171.055 432.797 170.691 432.117 170.449 431.344C170.207 430.562 170.086 429.727 170.086 428.836V428.496C170.086 427.598 170.207 426.762 170.449 425.988C170.691 425.207 171.055 424.527 171.539 423.949C172.023 423.363 172.629 422.906 173.355 422.578C174.082 422.25 174.934 422.086 175.91 422.086C176.949 422.086 177.859 422.285 178.641 422.684C179.43 423.082 180.047 423.652 180.492 424.395C180.945 425.129 181.176 426 181.184 427.008H178.008C178 426.586 177.91 426.203 177.738 425.859C177.574 425.516 177.332 425.242 177.012 425.039C176.699 424.828 176.312 424.723 175.852 424.723C175.359 424.723 174.957 424.828 174.645 425.039C174.332 425.242 174.09 425.523 173.918 425.883C173.746 426.234 173.625 426.637 173.555 427.09C173.492 427.535 173.461 428.004 173.461 428.496V428.836C173.461 429.328 173.492 429.801 173.555 430.254C173.617 430.707 173.734 431.109 173.906 431.461C174.086 431.812 174.332 432.09 174.645 432.293C174.957 432.496 175.363 432.598 175.863 432.598ZM186.516 425.086V435H183.141V422.32H186.316L186.516 425.086ZM190.336 422.238L190.277 425.367C190.113 425.344 189.914 425.324 189.68 425.309C189.453 425.285 189.246 425.273 189.059 425.273C188.582 425.273 188.168 425.336 187.816 425.461C187.473 425.578 187.184 425.754 186.949 425.988C186.723 426.223 186.551 426.508 186.434 426.844C186.324 427.18 186.262 427.562 186.246 427.992L185.566 427.781C185.566 426.961 185.648 426.207 185.812 425.52C185.977 424.824 186.215 424.219 186.527 423.703C186.848 423.188 187.238 422.789 187.699 422.508C188.16 422.227 188.688 422.086 189.281 422.086C189.469 422.086 189.66 422.102 189.855 422.133C190.051 422.156 190.211 422.191 190.336 422.238ZM195.492 422.32V435H192.105V422.32H195.492ZM191.895 419.016C191.895 418.523 192.066 418.117 192.41 417.797C192.754 417.477 193.215 417.316 193.793 417.316C194.363 417.316 194.82 417.477 195.164 417.797C195.516 418.117 195.691 418.523 195.691 419.016C195.691 419.508 195.516 419.914 195.164 420.234C194.82 420.555 194.363 420.715 193.793 420.715C193.215 420.715 192.754 420.555 192.41 420.234C192.066 419.914 191.895 419.508 191.895 419.016ZM201.656 424.758V439.875H198.281V422.32H201.41L201.656 424.758ZM209.684 428.52V428.766C209.684 429.688 209.574 430.543 209.355 431.332C209.145 432.121 208.832 432.809 208.418 433.395C208.004 433.973 207.488 434.426 206.871 434.754C206.262 435.074 205.559 435.234 204.762 435.234C203.988 435.234 203.316 435.078 202.746 434.766C202.176 434.453 201.695 434.016 201.305 433.453C200.922 432.883 200.613 432.223 200.379 431.473C200.145 430.723 199.965 429.918 199.84 429.059V428.414C199.965 427.492 200.145 426.648 200.379 425.883C200.613 425.109 200.922 424.441 201.305 423.879C201.695 423.309 202.172 422.867 202.734 422.555C203.305 422.242 203.973 422.086 204.738 422.086C205.543 422.086 206.25 422.238 206.859 422.543C207.477 422.848 207.992 423.285 208.406 423.855C208.828 424.426 209.145 425.105 209.355 425.895C209.574 426.684 209.684 427.559 209.684 428.52ZM206.297 428.766V428.52C206.297 427.98 206.25 427.484 206.156 427.031C206.07 426.57 205.93 426.168 205.734 425.824C205.547 425.48 205.297 425.215 204.984 425.027C204.68 424.832 204.309 424.734 203.871 424.734C203.41 424.734 203.016 424.809 202.688 424.957C202.367 425.105 202.105 425.32 201.902 425.602C201.699 425.883 201.547 426.219 201.445 426.609C201.344 427 201.281 427.441 201.258 427.934V429.562C201.297 430.141 201.406 430.66 201.586 431.121C201.766 431.574 202.043 431.934 202.418 432.199C202.793 432.465 203.285 432.598 203.895 432.598C204.34 432.598 204.715 432.5 205.02 432.305C205.324 432.102 205.57 431.824 205.758 431.473C205.953 431.121 206.09 430.715 206.168 430.254C206.254 429.793 206.297 429.297 206.297 428.766ZM217.992 422.32V424.711H210.609V422.32H217.992ZM212.438 419.191H215.812V431.18C215.812 431.547 215.859 431.828 215.953 432.023C216.055 432.219 216.203 432.355 216.398 432.434C216.594 432.504 216.84 432.539 217.137 432.539C217.348 432.539 217.535 432.531 217.699 432.516C217.871 432.492 218.016 432.469 218.133 432.445L218.145 434.93C217.855 435.023 217.543 435.098 217.207 435.152C216.871 435.207 216.5 435.234 216.094 435.234C215.352 435.234 214.703 435.113 214.148 434.871C213.602 434.621 213.18 434.223 212.883 433.676C212.586 433.129 212.438 432.41 212.438 431.52V419.191Z"
        fill="url(#paint2_linear_3_64)" />
      <path id="React.js"
        d="M188.523 500.938H194.887C196.191 500.938 197.312 501.133 198.25 501.523C199.195 501.914 199.922 502.492 200.43 503.258C200.938 504.023 201.191 504.965 201.191 506.082C201.191 506.996 201.035 507.781 200.723 508.438C200.418 509.086 199.984 509.629 199.422 510.066C198.867 510.496 198.215 510.84 197.465 511.098L196.352 511.684H190.82L190.797 508.941H194.91C195.527 508.941 196.039 508.832 196.445 508.613C196.852 508.395 197.156 508.09 197.359 507.699C197.57 507.309 197.676 506.855 197.676 506.34C197.676 505.793 197.574 505.32 197.371 504.922C197.168 504.523 196.859 504.219 196.445 504.008C196.031 503.797 195.512 503.691 194.887 503.691H192.039V518H188.523V500.938ZM198.062 518L194.172 510.395L197.887 510.371L201.824 517.836V518H198.062ZM209.523 518.234C208.539 518.234 207.656 518.078 206.875 517.766C206.094 517.445 205.43 517.004 204.883 516.441C204.344 515.879 203.93 515.227 203.641 514.484C203.352 513.734 203.207 512.938 203.207 512.094V511.625C203.207 510.664 203.344 509.785 203.617 508.988C203.891 508.191 204.281 507.5 204.789 506.914C205.305 506.328 205.93 505.879 206.664 505.566C207.398 505.246 208.227 505.086 209.148 505.086C210.047 505.086 210.844 505.234 211.539 505.531C212.234 505.828 212.816 506.25 213.285 506.797C213.762 507.344 214.121 508 214.363 508.766C214.605 509.523 214.727 510.367 214.727 511.297V512.703H204.648V510.453H211.41V510.195C211.41 509.727 211.324 509.309 211.152 508.941C210.988 508.566 210.738 508.27 210.402 508.051C210.066 507.832 209.637 507.723 209.113 507.723C208.668 507.723 208.285 507.82 207.965 508.016C207.645 508.211 207.383 508.484 207.18 508.836C206.984 509.188 206.836 509.602 206.734 510.078C206.641 510.547 206.594 511.062 206.594 511.625V512.094C206.594 512.602 206.664 513.07 206.805 513.5C206.953 513.93 207.16 514.301 207.426 514.613C207.699 514.926 208.027 515.168 208.41 515.34C208.801 515.512 209.242 515.598 209.734 515.598C210.344 515.598 210.91 515.48 211.434 515.246C211.965 515.004 212.422 514.641 212.805 514.156L214.445 515.938C214.18 516.32 213.816 516.688 213.355 517.039C212.902 517.391 212.355 517.68 211.715 517.906C211.074 518.125 210.344 518.234 209.523 518.234ZM223.492 515.141V509.492C223.492 509.086 223.426 508.738 223.293 508.449C223.16 508.152 222.953 507.922 222.672 507.758C222.398 507.594 222.043 507.512 221.605 507.512C221.23 507.512 220.906 507.578 220.633 507.711C220.359 507.836 220.148 508.02 220 508.262C219.852 508.496 219.777 508.773 219.777 509.094H216.402C216.402 508.555 216.527 508.043 216.777 507.559C217.027 507.074 217.391 506.648 217.867 506.281C218.344 505.906 218.91 505.613 219.566 505.402C220.23 505.191 220.973 505.086 221.793 505.086C222.777 505.086 223.652 505.25 224.418 505.578C225.184 505.906 225.785 506.398 226.223 507.055C226.668 507.711 226.891 508.531 226.891 509.516V514.941C226.891 515.637 226.934 516.207 227.02 516.652C227.105 517.09 227.23 517.473 227.395 517.801V518H223.984C223.82 517.656 223.695 517.227 223.609 516.711C223.531 516.188 223.492 515.664 223.492 515.141ZM223.938 510.277L223.961 512.188H222.074C221.629 512.188 221.242 512.238 220.914 512.34C220.586 512.441 220.316 512.586 220.105 512.773C219.895 512.953 219.738 513.164 219.637 513.406C219.543 513.648 219.496 513.914 219.496 514.203C219.496 514.492 219.562 514.754 219.695 514.988C219.828 515.215 220.02 515.395 220.27 515.527C220.52 515.652 220.812 515.715 221.148 515.715C221.656 515.715 222.098 515.613 222.473 515.41C222.848 515.207 223.137 514.957 223.34 514.66C223.551 514.363 223.66 514.082 223.668 513.816L224.559 515.246C224.434 515.566 224.262 515.898 224.043 516.242C223.832 516.586 223.562 516.91 223.234 517.215C222.906 517.512 222.512 517.758 222.051 517.953C221.59 518.141 221.043 518.234 220.41 518.234C219.605 518.234 218.875 518.074 218.219 517.754C217.57 517.426 217.055 516.977 216.672 516.406C216.297 515.828 216.109 515.172 216.109 514.438C216.109 513.773 216.234 513.184 216.484 512.668C216.734 512.152 217.102 511.719 217.586 511.367C218.078 511.008 218.691 510.738 219.426 510.559C220.16 510.371 221.012 510.277 221.98 510.277H223.938ZM234.73 515.598C235.145 515.598 235.512 515.52 235.832 515.363C236.152 515.199 236.402 514.973 236.582 514.684C236.77 514.387 236.867 514.039 236.875 513.641H240.051C240.043 514.531 239.805 515.324 239.336 516.02C238.867 516.707 238.238 517.25 237.449 517.648C236.66 518.039 235.777 518.234 234.801 518.234C233.816 518.234 232.957 518.07 232.223 517.742C231.496 517.414 230.891 516.961 230.406 516.383C229.922 515.797 229.559 515.117 229.316 514.344C229.074 513.562 228.953 512.727 228.953 511.836V511.496C228.953 510.598 229.074 509.762 229.316 508.988C229.559 508.207 229.922 507.527 230.406 506.949C230.891 506.363 231.496 505.906 232.223 505.578C232.949 505.25 233.801 505.086 234.777 505.086C235.816 505.086 236.727 505.285 237.508 505.684C238.297 506.082 238.914 506.652 239.359 507.395C239.812 508.129 240.043 509 240.051 510.008H236.875C236.867 509.586 236.777 509.203 236.605 508.859C236.441 508.516 236.199 508.242 235.879 508.039C235.566 507.828 235.18 507.723 234.719 507.723C234.227 507.723 233.824 507.828 233.512 508.039C233.199 508.242 232.957 508.523 232.785 508.883C232.613 509.234 232.492 509.637 232.422 510.09C232.359 510.535 232.328 511.004 232.328 511.496V511.836C232.328 512.328 232.359 512.801 232.422 513.254C232.484 513.707 232.602 514.109 232.773 514.461C232.953 514.812 233.199 515.09 233.512 515.293C233.824 515.496 234.23 515.598 234.73 515.598ZM248.219 505.32V507.711H240.836V505.32H248.219ZM242.664 502.191H246.039V514.18C246.039 514.547 246.086 514.828 246.18 515.023C246.281 515.219 246.43 515.355 246.625 515.434C246.82 515.504 247.066 515.539 247.363 515.539C247.574 515.539 247.762 515.531 247.926 515.516C248.098 515.492 248.242 515.469 248.359 515.445L248.371 517.93C248.082 518.023 247.77 518.098 247.434 518.152C247.098 518.207 246.727 518.234 246.32 518.234C245.578 518.234 244.93 518.113 244.375 517.871C243.828 517.621 243.406 517.223 243.109 516.676C242.812 516.129 242.664 515.41 242.664 514.52V502.191ZM250.305 516.371C250.305 515.871 250.477 515.453 250.82 515.117C251.172 514.781 251.637 514.613 252.215 514.613C252.793 514.613 253.254 514.781 253.598 515.117C253.949 515.453 254.125 515.871 254.125 516.371C254.125 516.871 253.949 517.289 253.598 517.625C253.254 517.961 252.793 518.129 252.215 518.129C251.637 518.129 251.172 517.961 250.82 517.625C250.477 517.289 250.305 516.871 250.305 516.371ZM257.289 505.32H260.676V518.762C260.676 519.699 260.504 520.492 260.16 521.141C259.816 521.789 259.32 522.281 258.672 522.617C258.023 522.953 257.238 523.121 256.316 523.121C256.027 523.121 255.746 523.105 255.473 523.074C255.191 523.043 254.902 522.992 254.605 522.922L254.617 520.332C254.805 520.363 254.988 520.387 255.168 520.402C255.34 520.426 255.516 520.438 255.695 520.438C256.047 520.438 256.34 520.379 256.574 520.262C256.809 520.145 256.984 519.961 257.102 519.711C257.227 519.469 257.289 519.152 257.289 518.762V505.32ZM257.02 502.016C257.02 501.523 257.191 501.117 257.535 500.797C257.887 500.477 258.348 500.316 258.918 500.316C259.496 500.316 259.957 500.477 260.301 500.797C260.645 501.117 260.816 501.523 260.816 502.016C260.816 502.508 260.645 502.914 260.301 503.234C259.957 503.555 259.496 503.715 258.918 503.715C258.348 503.715 257.887 503.555 257.535 503.234C257.191 502.914 257.02 502.508 257.02 502.016ZM270.215 514.496C270.215 514.254 270.145 514.035 270.004 513.84C269.863 513.645 269.602 513.465 269.219 513.301C268.844 513.129 268.301 512.973 267.59 512.832C266.949 512.691 266.352 512.516 265.797 512.305C265.25 512.086 264.773 511.824 264.367 511.52C263.969 511.215 263.656 510.855 263.43 510.441C263.203 510.02 263.09 509.539 263.09 509C263.09 508.469 263.203 507.969 263.43 507.5C263.664 507.031 263.996 506.617 264.426 506.258C264.863 505.891 265.395 505.605 266.02 505.402C266.652 505.191 267.363 505.086 268.152 505.086C269.254 505.086 270.199 505.262 270.988 505.613C271.785 505.965 272.395 506.449 272.816 507.066C273.246 507.676 273.461 508.371 273.461 509.152H270.086C270.086 508.824 270.016 508.531 269.875 508.273C269.742 508.008 269.531 507.801 269.242 507.652C268.961 507.496 268.594 507.418 268.141 507.418C267.766 507.418 267.441 507.484 267.168 507.617C266.895 507.742 266.684 507.914 266.535 508.133C266.395 508.344 266.324 508.578 266.324 508.836C266.324 509.031 266.363 509.207 266.441 509.363C266.527 509.512 266.664 509.648 266.852 509.773C267.039 509.898 267.281 510.016 267.578 510.125C267.883 510.227 268.258 510.32 268.703 510.406C269.617 510.594 270.434 510.84 271.152 511.145C271.871 511.441 272.441 511.848 272.863 512.363C273.285 512.871 273.496 513.539 273.496 514.367C273.496 514.93 273.371 515.445 273.121 515.914C272.871 516.383 272.512 516.793 272.043 517.145C271.574 517.488 271.012 517.758 270.355 517.953C269.707 518.141 268.977 518.234 268.164 518.234C266.984 518.234 265.984 518.023 265.164 517.602C264.352 517.18 263.734 516.645 263.312 515.996C262.898 515.34 262.691 514.668 262.691 513.98H265.891C265.906 514.441 266.023 514.812 266.242 515.094C266.469 515.375 266.754 515.578 267.098 515.703C267.449 515.828 267.828 515.891 268.234 515.891C268.672 515.891 269.035 515.832 269.324 515.715C269.613 515.59 269.832 515.426 269.98 515.223C270.137 515.012 270.215 514.77 270.215 514.496Z"
        fill="url(#paint3_linear_3_64)" />
      <path id="Python"
        d="M209.168 384.918H204.82V382.176H209.168C209.84 382.176 210.387 382.066 210.809 381.848C211.23 381.621 211.539 381.309 211.734 380.91C211.93 380.512 212.027 380.062 212.027 379.562C212.027 379.055 211.93 378.582 211.734 378.145C211.539 377.707 211.23 377.355 210.809 377.09C210.387 376.824 209.84 376.691 209.168 376.691H206.039V391H202.523V373.938H209.168C210.504 373.938 211.648 374.18 212.602 374.664C213.562 375.141 214.297 375.801 214.805 376.645C215.312 377.488 215.566 378.453 215.566 379.539C215.566 380.641 215.312 381.594 214.805 382.398C214.297 383.203 213.562 383.824 212.602 384.262C211.648 384.699 210.504 384.918 209.168 384.918ZM221.73 389.57L225.094 378.32H228.715L223.617 392.91C223.508 393.23 223.359 393.574 223.172 393.941C222.992 394.309 222.746 394.656 222.434 394.984C222.129 395.32 221.742 395.594 221.273 395.805C220.812 396.016 220.246 396.121 219.574 396.121C219.254 396.121 218.992 396.102 218.789 396.062C218.586 396.023 218.344 395.969 218.062 395.898V393.426C218.148 393.426 218.238 393.426 218.332 393.426C218.426 393.434 218.516 393.438 218.602 393.438C219.047 393.438 219.41 393.387 219.691 393.285C219.973 393.184 220.199 393.027 220.371 392.816C220.543 392.613 220.68 392.348 220.781 392.02L221.73 389.57ZM220.324 378.32L223.078 387.508L223.559 391.082L221.262 391.328L216.703 378.32H220.324ZM236.273 378.32V380.711H228.891V378.32H236.273ZM230.719 375.191H234.094V387.18C234.094 387.547 234.141 387.828 234.234 388.023C234.336 388.219 234.484 388.355 234.68 388.434C234.875 388.504 235.121 388.539 235.418 388.539C235.629 388.539 235.816 388.531 235.98 388.516C236.152 388.492 236.297 388.469 236.414 388.445L236.426 390.93C236.137 391.023 235.824 391.098 235.488 391.152C235.152 391.207 234.781 391.234 234.375 391.234C233.633 391.234 232.984 391.113 232.43 390.871C231.883 390.621 231.461 390.223 231.164 389.676C230.867 389.129 230.719 388.41 230.719 387.52V375.191ZM241.488 373V391H238.113V373H241.488ZM241.008 384.215H240.082C240.09 383.332 240.207 382.52 240.434 381.777C240.66 381.027 240.984 380.379 241.406 379.832C241.828 379.277 242.332 378.848 242.918 378.543C243.512 378.238 244.168 378.086 244.887 378.086C245.512 378.086 246.078 378.176 246.586 378.355C247.102 378.527 247.543 378.809 247.91 379.199C248.285 379.582 248.574 380.086 248.777 380.711C248.98 381.336 249.082 382.094 249.082 382.984V391H245.684V382.961C245.684 382.398 245.602 381.957 245.438 381.637C245.281 381.309 245.051 381.078 244.746 380.945C244.449 380.805 244.082 380.734 243.645 380.734C243.16 380.734 242.746 380.824 242.402 381.004C242.066 381.184 241.797 381.434 241.594 381.754C241.391 382.066 241.242 382.434 241.148 382.855C241.055 383.277 241.008 383.73 241.008 384.215ZM251.109 384.789V384.543C251.109 383.613 251.242 382.758 251.508 381.977C251.773 381.188 252.16 380.504 252.668 379.926C253.176 379.348 253.801 378.898 254.543 378.578C255.285 378.25 256.137 378.086 257.098 378.086C258.059 378.086 258.914 378.25 259.664 378.578C260.414 378.898 261.043 379.348 261.551 379.926C262.066 380.504 262.457 381.188 262.723 381.977C262.988 382.758 263.121 383.613 263.121 384.543V384.789C263.121 385.711 262.988 386.566 262.723 387.355C262.457 388.137 262.066 388.82 261.551 389.406C261.043 389.984 260.418 390.434 259.676 390.754C258.934 391.074 258.082 391.234 257.121 391.234C256.16 391.234 255.305 391.074 254.555 390.754C253.812 390.434 253.184 389.984 252.668 389.406C252.16 388.82 251.773 388.137 251.508 387.355C251.242 386.566 251.109 385.711 251.109 384.789ZM254.484 384.543V384.789C254.484 385.32 254.531 385.816 254.625 386.277C254.719 386.738 254.867 387.145 255.07 387.496C255.281 387.84 255.555 388.109 255.891 388.305C256.227 388.5 256.637 388.598 257.121 388.598C257.59 388.598 257.992 388.5 258.328 388.305C258.664 388.109 258.934 387.84 259.137 387.496C259.34 387.145 259.488 386.738 259.582 386.277C259.684 385.816 259.734 385.32 259.734 384.789V384.543C259.734 384.027 259.684 383.543 259.582 383.09C259.488 382.629 259.336 382.223 259.125 381.871C258.922 381.512 258.652 381.23 258.316 381.027C257.98 380.824 257.574 380.723 257.098 380.723C256.621 380.723 256.215 380.824 255.879 381.027C255.551 381.23 255.281 381.512 255.07 381.871C254.867 382.223 254.719 382.629 254.625 383.09C254.531 383.543 254.484 384.027 254.484 384.543ZM268.5 381.027V391H265.125V378.32H268.289L268.5 381.027ZM268.008 384.215H267.094C267.094 383.277 267.215 382.434 267.457 381.684C267.699 380.926 268.039 380.281 268.477 379.75C268.914 379.211 269.434 378.801 270.035 378.52C270.645 378.23 271.324 378.086 272.074 378.086C272.668 378.086 273.211 378.172 273.703 378.344C274.195 378.516 274.617 378.789 274.969 379.164C275.328 379.539 275.602 380.035 275.789 380.652C275.984 381.27 276.082 382.023 276.082 382.914V391H272.684V382.902C272.684 382.34 272.605 381.902 272.449 381.59C272.293 381.277 272.062 381.059 271.758 380.934C271.461 380.801 271.094 380.734 270.656 380.734C270.203 380.734 269.809 380.824 269.473 381.004C269.145 381.184 268.871 381.434 268.652 381.754C268.441 382.066 268.281 382.434 268.172 382.855C268.062 383.277 268.008 383.73 268.008 384.215Z"
        fill="url(#paint4_linear_3_64)" />
      <path id="React Native"
        d="M194.523 309.938H200.887C202.191 309.938 203.312 310.133 204.25 310.523C205.195 310.914 205.922 311.492 206.43 312.258C206.938 313.023 207.191 313.965 207.191 315.082C207.191 315.996 207.035 316.781 206.723 317.438C206.418 318.086 205.984 318.629 205.422 319.066C204.867 319.496 204.215 319.84 203.465 320.098L202.352 320.684H196.82L196.797 317.941H200.91C201.527 317.941 202.039 317.832 202.445 317.613C202.852 317.395 203.156 317.09 203.359 316.699C203.57 316.309 203.676 315.855 203.676 315.34C203.676 314.793 203.574 314.32 203.371 313.922C203.168 313.523 202.859 313.219 202.445 313.008C202.031 312.797 201.512 312.691 200.887 312.691H198.039V327H194.523V309.938ZM204.062 327L200.172 319.395L203.887 319.371L207.824 326.836V327H204.062ZM215.523 327.234C214.539 327.234 213.656 327.078 212.875 326.766C212.094 326.445 211.43 326.004 210.883 325.441C210.344 324.879 209.93 324.227 209.641 323.484C209.352 322.734 209.207 321.938 209.207 321.094V320.625C209.207 319.664 209.344 318.785 209.617 317.988C209.891 317.191 210.281 316.5 210.789 315.914C211.305 315.328 211.93 314.879 212.664 314.566C213.398 314.246 214.227 314.086 215.148 314.086C216.047 314.086 216.844 314.234 217.539 314.531C218.234 314.828 218.816 315.25 219.285 315.797C219.762 316.344 220.121 317 220.363 317.766C220.605 318.523 220.727 319.367 220.727 320.297V321.703H210.648V319.453H217.41V319.195C217.41 318.727 217.324 318.309 217.152 317.941C216.988 317.566 216.738 317.27 216.402 317.051C216.066 316.832 215.637 316.723 215.113 316.723C214.668 316.723 214.285 316.82 213.965 317.016C213.645 317.211 213.383 317.484 213.18 317.836C212.984 318.188 212.836 318.602 212.734 319.078C212.641 319.547 212.594 320.062 212.594 320.625V321.094C212.594 321.602 212.664 322.07 212.805 322.5C212.953 322.93 213.16 323.301 213.426 323.613C213.699 323.926 214.027 324.168 214.41 324.34C214.801 324.512 215.242 324.598 215.734 324.598C216.344 324.598 216.91 324.48 217.434 324.246C217.965 324.004 218.422 323.641 218.805 323.156L220.445 324.938C220.18 325.32 219.816 325.688 219.355 326.039C218.902 326.391 218.355 326.68 217.715 326.906C217.074 327.125 216.344 327.234 215.523 327.234ZM229.492 324.141V318.492C229.492 318.086 229.426 317.738 229.293 317.449C229.16 317.152 228.953 316.922 228.672 316.758C228.398 316.594 228.043 316.512 227.605 316.512C227.23 316.512 226.906 316.578 226.633 316.711C226.359 316.836 226.148 317.02 226 317.262C225.852 317.496 225.777 317.773 225.777 318.094H222.402C222.402 317.555 222.527 317.043 222.777 316.559C223.027 316.074 223.391 315.648 223.867 315.281C224.344 314.906 224.91 314.613 225.566 314.402C226.23 314.191 226.973 314.086 227.793 314.086C228.777 314.086 229.652 314.25 230.418 314.578C231.184 314.906 231.785 315.398 232.223 316.055C232.668 316.711 232.891 317.531 232.891 318.516V323.941C232.891 324.637 232.934 325.207 233.02 325.652C233.105 326.09 233.23 326.473 233.395 326.801V327H229.984C229.82 326.656 229.695 326.227 229.609 325.711C229.531 325.188 229.492 324.664 229.492 324.141ZM229.938 319.277L229.961 321.188H228.074C227.629 321.188 227.242 321.238 226.914 321.34C226.586 321.441 226.316 321.586 226.105 321.773C225.895 321.953 225.738 322.164 225.637 322.406C225.543 322.648 225.496 322.914 225.496 323.203C225.496 323.492 225.562 323.754 225.695 323.988C225.828 324.215 226.02 324.395 226.27 324.527C226.52 324.652 226.812 324.715 227.148 324.715C227.656 324.715 228.098 324.613 228.473 324.41C228.848 324.207 229.137 323.957 229.34 323.66C229.551 323.363 229.66 323.082 229.668 322.816L230.559 324.246C230.434 324.566 230.262 324.898 230.043 325.242C229.832 325.586 229.562 325.91 229.234 326.215C228.906 326.512 228.512 326.758 228.051 326.953C227.59 327.141 227.043 327.234 226.41 327.234C225.605 327.234 224.875 327.074 224.219 326.754C223.57 326.426 223.055 325.977 222.672 325.406C222.297 324.828 222.109 324.172 222.109 323.438C222.109 322.773 222.234 322.184 222.484 321.668C222.734 321.152 223.102 320.719 223.586 320.367C224.078 320.008 224.691 319.738 225.426 319.559C226.16 319.371 227.012 319.277 227.98 319.277H229.938ZM240.73 324.598C241.145 324.598 241.512 324.52 241.832 324.363C242.152 324.199 242.402 323.973 242.582 323.684C242.77 323.387 242.867 323.039 242.875 322.641H246.051C246.043 323.531 245.805 324.324 245.336 325.02C244.867 325.707 244.238 326.25 243.449 326.648C242.66 327.039 241.777 327.234 240.801 327.234C239.816 327.234 238.957 327.07 238.223 326.742C237.496 326.414 236.891 325.961 236.406 325.383C235.922 324.797 235.559 324.117 235.316 323.344C235.074 322.562 234.953 321.727 234.953 320.836V320.496C234.953 319.598 235.074 318.762 235.316 317.988C235.559 317.207 235.922 316.527 236.406 315.949C236.891 315.363 237.496 314.906 238.223 314.578C238.949 314.25 239.801 314.086 240.777 314.086C241.816 314.086 242.727 314.285 243.508 314.684C244.297 315.082 244.914 315.652 245.359 316.395C245.812 317.129 246.043 318 246.051 319.008H242.875C242.867 318.586 242.777 318.203 242.605 317.859C242.441 317.516 242.199 317.242 241.879 317.039C241.566 316.828 241.18 316.723 240.719 316.723C240.227 316.723 239.824 316.828 239.512 317.039C239.199 317.242 238.957 317.523 238.785 317.883C238.613 318.234 238.492 318.637 238.422 319.09C238.359 319.535 238.328 320.004 238.328 320.496V320.836C238.328 321.328 238.359 321.801 238.422 322.254C238.484 322.707 238.602 323.109 238.773 323.461C238.953 323.812 239.199 324.09 239.512 324.293C239.824 324.496 240.23 324.598 240.73 324.598ZM254.219 314.32V316.711H246.836V314.32H254.219ZM248.664 311.191H252.039V323.18C252.039 323.547 252.086 323.828 252.18 324.023C252.281 324.219 252.43 324.355 252.625 324.434C252.82 324.504 253.066 324.539 253.363 324.539C253.574 324.539 253.762 324.531 253.926 324.516C254.098 324.492 254.242 324.469 254.359 324.445L254.371 326.93C254.082 327.023 253.77 327.098 253.434 327.152C253.098 327.207 252.727 327.234 252.32 327.234C251.578 327.234 250.93 327.113 250.375 326.871C249.828 326.621 249.406 326.223 249.109 325.676C248.812 325.129 248.664 324.41 248.664 323.52V311.191ZM276.215 309.938V327H272.699L265.844 315.562V327H262.328V309.938H265.844L272.711 321.387V309.938H276.215ZM285.906 324.141V318.492C285.906 318.086 285.84 317.738 285.707 317.449C285.574 317.152 285.367 316.922 285.086 316.758C284.812 316.594 284.457 316.512 284.02 316.512C283.645 316.512 283.32 316.578 283.047 316.711C282.773 316.836 282.562 317.02 282.414 317.262C282.266 317.496 282.191 317.773 282.191 318.094H278.816C278.816 317.555 278.941 317.043 279.191 316.559C279.441 316.074 279.805 315.648 280.281 315.281C280.758 314.906 281.324 314.613 281.98 314.402C282.645 314.191 283.387 314.086 284.207 314.086C285.191 314.086 286.066 314.25 286.832 314.578C287.598 314.906 288.199 315.398 288.637 316.055C289.082 316.711 289.305 317.531 289.305 318.516V323.941C289.305 324.637 289.348 325.207 289.434 325.652C289.52 326.09 289.645 326.473 289.809 326.801V327H286.398C286.234 326.656 286.109 326.227 286.023 325.711C285.945 325.188 285.906 324.664 285.906 324.141ZM286.352 319.277L286.375 321.188H284.488C284.043 321.188 283.656 321.238 283.328 321.34C283 321.441 282.73 321.586 282.52 321.773C282.309 321.953 282.152 322.164 282.051 322.406C281.957 322.648 281.91 322.914 281.91 323.203C281.91 323.492 281.977 323.754 282.109 323.988C282.242 324.215 282.434 324.395 282.684 324.527C282.934 324.652 283.227 324.715 283.562 324.715C284.07 324.715 284.512 324.613 284.887 324.41C285.262 324.207 285.551 323.957 285.754 323.66C285.965 323.363 286.074 323.082 286.082 322.816L286.973 324.246C286.848 324.566 286.676 324.898 286.457 325.242C286.246 325.586 285.977 325.91 285.648 326.215C285.32 326.512 284.926 326.758 284.465 326.953C284.004 327.141 283.457 327.234 282.824 327.234C282.02 327.234 281.289 327.074 280.633 326.754C279.984 326.426 279.469 325.977 279.086 325.406C278.711 324.828 278.523 324.172 278.523 323.438C278.523 322.773 278.648 322.184 278.898 321.668C279.148 321.152 279.516 320.719 280 320.367C280.492 320.008 281.105 319.738 281.84 319.559C282.574 319.371 283.426 319.277 284.395 319.277H286.352ZM298.117 314.32V316.711H290.734V314.32H298.117ZM292.562 311.191H295.938V323.18C295.938 323.547 295.984 323.828 296.078 324.023C296.18 324.219 296.328 324.355 296.523 324.434C296.719 324.504 296.965 324.539 297.262 324.539C297.473 324.539 297.66 324.531 297.824 324.516C297.996 324.492 298.141 324.469 298.258 324.445L298.27 326.93C297.98 327.023 297.668 327.098 297.332 327.152C296.996 327.207 296.625 327.234 296.219 327.234C295.477 327.234 294.828 327.113 294.273 326.871C293.727 326.621 293.305 326.223 293.008 325.676C292.711 325.129 292.562 324.41 292.562 323.52V311.191ZM303.602 314.32V327H300.215V314.32H303.602ZM300.004 311.016C300.004 310.523 300.176 310.117 300.52 309.797C300.863 309.477 301.324 309.316 301.902 309.316C302.473 309.316 302.93 309.477 303.273 309.797C303.625 310.117 303.801 310.523 303.801 311.016C303.801 311.508 303.625 311.914 303.273 312.234C302.93 312.555 302.473 312.715 301.902 312.715C301.324 312.715 300.863 312.555 300.52 312.234C300.176 311.914 300.004 311.508 300.004 311.016ZM310.703 324.539L313.516 314.32H317.043L312.766 327H310.633L310.703 324.539ZM308.77 314.32L311.594 324.551L311.652 327H309.508L305.23 314.32H308.77ZM324.227 327.234C323.242 327.234 322.359 327.078 321.578 326.766C320.797 326.445 320.133 326.004 319.586 325.441C319.047 324.879 318.633 324.227 318.344 323.484C318.055 322.734 317.91 321.938 317.91 321.094V320.625C317.91 319.664 318.047 318.785 318.32 317.988C318.594 317.191 318.984 316.5 319.492 315.914C320.008 315.328 320.633 314.879 321.367 314.566C322.102 314.246 322.93 314.086 323.852 314.086C324.75 314.086 325.547 314.234 326.242 314.531C326.938 314.828 327.52 315.25 327.988 315.797C328.465 316.344 328.824 317 329.066 317.766C329.309 318.523 329.43 319.367 329.43 320.297V321.703H319.352V319.453H326.113V319.195C326.113 318.727 326.027 318.309 325.855 317.941C325.691 317.566 325.441 317.27 325.105 317.051C324.77 316.832 324.34 316.723 323.816 316.723C323.371 316.723 322.988 316.82 322.668 317.016C322.348 317.211 322.086 317.484 321.883 317.836C321.688 318.188 321.539 318.602 321.438 319.078C321.344 319.547 321.297 320.062 321.297 320.625V321.094C321.297 321.602 321.367 322.07 321.508 322.5C321.656 322.93 321.863 323.301 322.129 323.613C322.402 323.926 322.73 324.168 323.113 324.34C323.504 324.512 323.945 324.598 324.438 324.598C325.047 324.598 325.613 324.48 326.137 324.246C326.668 324.004 327.125 323.641 327.508 323.156L329.148 324.938C328.883 325.32 328.52 325.688 328.059 326.039C327.605 326.391 327.059 326.68 326.418 326.906C325.777 327.125 325.047 327.234 324.227 327.234Z"
        fill="url(#paint5_linear_3_64)" />
    </g>
    <rect id="spacecraft-rect" width="508" height="251" fill="#1B1B26" />
    <g id="spacecraft_2">
      <path id="Vector_11"
        d="M378.715 120.392C340.909 114.363 297.855 111.146 253.018 111.146C211.983 111.146 172.449 113.836 137.067 118.909C137.076 118.366 137.084 117.823 137.108 117.28C138.046 85.7658 151.283 55.8681 173.99 33.9773C196.697 12.0866 227.073 -0.0606541 258.624 0.131956C290.176 0.324566 320.401 12.8417 342.838 35.0081C365.276 57.1745 378.147 87.2315 378.699 118.755C378.708 119.306 378.715 119.849 378.715 120.392Z"
        fill="url(#paint6_linear_3_64)" />
      <path id="Vector_12"
        d="M431.574 129.97C414.17 125.256 396.518 121.512 378.699 118.755C349.493 114.233 320.05 111.405 290.516 110.287C278.214 109.784 265.685 109.525 253.018 109.525C242.978 109.525 233.019 109.687 223.199 110.011C194.391 110.862 165.651 113.288 137.108 117.28C115.979 120.187 95.0554 124.426 74.4617 129.97C26.4451 143.235 2.67029e-05 161.014 2.67029e-05 180.025C2.67029e-05 199.035 26.4451 216.814 74.4617 230.079C108.23 239.414 149.864 245.775 195.229 248.693C213.954 249.908 233.312 250.524 253.018 250.524C272.789 250.524 292.211 249.9 310.993 248.684C352.278 246.018 390.474 240.5 422.442 232.478C422.612 232.429 422.775 232.389 422.945 232.348C425.102 231.813 427.227 231.254 429.327 230.695C430.081 230.484 430.827 230.282 431.574 230.079C431.616 230.062 431.659 230.048 431.703 230.039C432.417 229.844 433.122 229.642 433.828 229.447C435.239 229.042 436.634 228.645 438.004 228.232C438.069 228.215 438.126 228.199 438.183 228.183C439.375 227.826 440.543 227.47 441.702 227.113C442.651 226.813 443.592 226.522 444.524 226.222C445.206 226.003 445.879 225.784 446.544 225.566C447.03 225.403 447.509 225.249 447.979 225.087C448.62 224.877 449.261 224.658 449.893 224.439C450.161 224.35 450.428 224.261 450.688 224.164C451.296 223.961 451.888 223.75 452.48 223.54C453.12 223.313 453.761 223.078 454.394 222.851C454.921 222.665 455.448 222.47 455.967 222.276C456.405 222.105 456.835 221.943 457.273 221.781C458.465 221.336 459.633 220.874 460.784 220.42C461.36 220.185 461.936 219.958 462.503 219.723C463.063 219.496 463.63 219.261 464.182 219.026C465.09 218.645 465.982 218.264 466.858 217.884C467.28 217.689 467.71 217.503 468.123 217.324C468.44 217.179 468.748 217.041 469.064 216.895C469.291 216.798 469.518 216.692 469.737 216.587C470.556 216.214 471.367 215.833 472.162 215.453C475.211 213.994 478.057 212.503 480.701 210.979C497.285 201.49 506.035 190.964 506.035 180.025C506.035 161.014 479.59 143.235 431.574 129.97ZM431.136 228.523C397.327 237.866 355.579 244.228 310.092 247.121C291.595 248.295 272.473 248.903 253.018 248.903C233.628 248.903 214.57 248.304 196.129 247.129C150.57 244.244 108.757 237.883 74.8996 228.523C27.6453 215.461 1.62193 198.241 1.62193 180.025C1.62457 178.415 1.8262 176.812 2.22223 175.252C6.35778 158.818 31.7975 143.438 74.8996 131.526C95.3377 126.025 116.101 121.811 137.067 118.909C165.782 114.895 194.695 112.46 223.677 111.616C233.344 111.3 243.124 111.143 253.018 111.146C265.515 111.146 277.873 111.397 290.021 111.883C319.727 112.992 349.342 115.833 378.716 120.392C396.381 123.136 413.881 126.853 431.136 131.526C474.23 143.438 499.661 158.81 503.805 175.235C504.208 176.8 504.412 178.409 504.413 180.025C504.413 198.241 478.39 215.461 431.136 228.523V228.523Z"
        fill="white" />
      <path id="Vector_13"
        d="M505.573 180.762C505.573 191.588 496.644 201.831 480.701 210.979C478.049 212.503 475.195 213.994 472.162 215.453C471.367 215.833 470.556 216.214 469.737 216.587C469.518 216.692 469.291 216.798 469.064 216.895C468.748 217.041 468.439 217.179 468.123 217.324C467.71 217.503 467.28 217.689 466.858 217.883C465.982 218.264 465.09 218.645 464.182 219.026C463.63 219.261 463.063 219.496 462.503 219.723C461.936 219.958 461.36 220.185 460.784 220.42C459.633 220.874 458.464 221.336 457.273 221.781C456.835 221.943 456.405 222.105 455.967 222.276C455.448 222.47 454.921 222.664 454.393 222.851C453.761 223.078 453.12 223.313 452.48 223.54C451.888 223.75 451.296 223.961 450.688 224.164C450.428 224.261 450.161 224.35 449.893 224.439C449.26 224.658 448.62 224.877 447.979 225.087C447.509 225.249 447.03 225.403 446.544 225.565C445.878 225.784 445.205 226.003 444.524 226.222C443.592 226.522 442.651 226.813 441.702 227.113C440.543 227.47 439.375 227.826 438.183 228.183C438.126 228.199 438.069 228.215 438.004 228.232C436.634 228.645 435.239 229.042 433.828 229.447C433.122 229.641 432.417 229.844 431.703 230.039C431.659 230.048 431.615 230.062 431.574 230.079C430.827 230.282 430.081 230.484 429.327 230.695C427.235 231.246 425.102 231.805 422.945 232.348C422.775 232.389 422.612 232.429 422.442 232.478C391.342 240.241 353.187 245.897 310.96 248.628C292.462 249.819 273.178 250.451 253.366 250.451C233.377 250.451 213.929 249.811 195.286 248.595C83.9903 241.343 1.15978 213.726 1.15978 180.762C1.16855 178.756 1.47452 176.763 2.06775 174.846C2.11646 174.984 2.16515 175.114 2.22218 175.252C13.7941 205.623 95.9198 230.168 202.479 236.157C218.803 237.08 235.712 237.558 253.018 237.558C270.396 237.558 287.369 237.072 303.759 236.148C410.229 230.136 492.273 205.583 503.805 175.235C504 174.749 504.17 174.263 504.316 173.777C505.138 176.014 505.563 178.378 505.573 180.762V180.762Z"
        fill="white" />
      <path id="Vector_14"
        d="M74.3396 172.039C60.8431 172.039 46.499 169.138 46.499 163.76C46.499 158.383 60.8431 155.481 74.3396 155.481C87.836 155.481 102.18 158.383 102.18 163.76C102.18 169.138 87.836 172.039 74.3396 172.039ZM74.3396 157.102C58.8885 157.102 48.1209 160.611 48.1209 163.76C48.1209 166.91 58.8885 170.419 74.3396 170.419C89.7907 170.419 100.558 166.91 100.558 163.76C100.558 160.611 89.7907 157.102 74.3396 157.102V157.102Z"
        fill="white" />
      <path id="Vector_15"
        d="M131.917 210.125C118.421 210.125 104.077 207.224 104.077 201.846C104.077 196.469 118.421 193.567 131.917 193.567C145.414 193.567 159.758 196.469 159.758 201.846C159.758 207.224 145.414 210.125 131.917 210.125ZM131.917 195.188C116.466 195.188 105.699 198.697 105.699 201.846C105.699 204.995 116.466 208.505 131.917 208.505C147.368 208.505 158.136 204.995 158.136 201.846C158.136 198.697 147.368 195.188 131.917 195.188V195.188Z"
        fill="white" />
      <path id="Vector_16"
        d="M431.159 172.039C417.663 172.039 403.319 169.138 403.319 163.76C403.319 158.383 417.663 155.481 431.159 155.481C444.656 155.481 459 158.383 459 163.76C459 169.138 444.656 172.039 431.159 172.039ZM431.159 157.102C415.708 157.102 404.941 160.611 404.941 163.76C404.941 166.91 415.708 170.419 431.159 170.419C446.61 170.419 457.378 166.91 457.378 163.76C457.378 160.611 446.61 157.102 431.159 157.102V157.102Z"
        fill="white" />
      <path id="Vector_17"
        d="M373.581 210.125C360.085 210.125 345.741 207.224 345.741 201.846C345.741 196.469 360.085 193.567 373.581 193.567C387.078 193.567 401.422 196.469 401.422 201.846C401.422 207.224 387.078 210.125 373.581 210.125ZM373.581 195.188C358.13 195.188 347.363 198.697 347.363 201.846C347.363 204.995 358.13 208.505 373.581 208.505C389.033 208.505 399.8 204.995 399.8 201.846C399.8 198.697 389.033 195.188 373.581 195.188V195.188Z"
        fill="white" />
      <path id="Vector_18"
        d="M252.749 227.953C239.253 227.953 224.909 225.051 224.909 219.674C224.909 214.296 239.253 211.395 252.749 211.395C266.246 211.395 280.59 214.296 280.59 219.674C280.59 225.051 266.246 227.953 252.749 227.953ZM252.749 213.015C237.298 213.015 226.531 216.525 226.531 219.674C226.531 222.823 237.298 226.332 252.749 226.332C268.2 226.332 278.968 222.823 278.968 219.674C278.968 216.525 268.2 213.015 252.749 213.015V213.015Z"
        fill="white" />
    </g>
  </g>
  <defs>
    <linearGradient id="paint0_linear_3_64" x1="282" y1="476.126" x2="368.838" y2="486.164"
      gradientUnits="userSpaceOnUse">
      <stop stop-color="#FF00B8" />
      <stop offset="1" stop-color="#9847FF" />
    </linearGradient>
    <linearGradient id="paint1_linear_3_64" x1="299" y1="412.126" x2="393.596" y2="424.068"
      gradientUnits="userSpaceOnUse">
      <stop stop-color="#FF00B8" />
      <stop offset="1" stop-color="#9847FF" />
    </linearGradient>
    <linearGradient id="paint2_linear_3_64" x1="102" y1="419.126" x2="233.313" y2="442.493"
      gradientUnits="userSpaceOnUse">
      <stop stop-color="#FF00B8" />
      <stop offset="1" stop-color="#9847FF" />
    </linearGradient>
    <linearGradient id="paint3_linear_3_64" x1="187" y1="502.126" x2="287.1" y2="515.524"
      gradientUnits="userSpaceOnUse">
      <stop stop-color="#FF00B8" />
      <stop offset="1" stop-color="#9847FF" />
    </linearGradient>
    <linearGradient id="paint4_linear_3_64" x1="201" y1="375.126" x2="288.95" y2="385.426"
      gradientUnits="userSpaceOnUse">
      <stop stop-color="#FF00B8" />
      <stop offset="1" stop-color="#9847FF" />
    </linearGradient>
    <linearGradient id="paint5_linear_3_64" x1="193" y1="311.126" x2="346.044" y2="343.249"
      gradientUnits="userSpaceOnUse">
      <stop stop-color="#FF00B8" />
      <stop offset="1" stop-color="#9847FF" />
    </linearGradient>
    <linearGradient id="paint6_linear_3_64" x1="137.067" y1="23.4363" x2="383.056" y2="44.4816"
      gradientUnits="userSpaceOnUse">
      <stop stop-color="#FF00B8" />
      <stop offset="1" stop-color="#9847FF" />
    </linearGradient>
    <clipPath id="clip0_3_64">
      <rect width="507" height="554.452" fill="white" />
    </clipPath>
  </defs>
</svg>